<?xml version="1.0" encoding="UTF-8"?>
<!DOCTYPE svg PUBLIC "-//W3C//DTD SVG 1.1//EN" "http://www.w3.org/Graphics/SVG/1.1/DTD/svg11.dtd">
<!-- Creator: CorelDRAW 2020 (64 Bit) -->
<svg xmlns="http://www.w3.org/2000/svg" xml:space="preserve" width="138.305mm" height="138.305mm" version="1.1" style="shape-rendering:geometricPrecision; text-rendering:geometricPrecision; image-rendering:optimizeQuality; fill-rule:evenodd; clip-rule:evenodd"
viewBox="0 0 13829.48 13829.48"
 xmlns:xlink="http://www.w3.org/1999/xlink"
 xmlns:xodm="http://www.corel.com/coreldraw/odm/2003">
 <defs>
  <style type="text/css">
   <![CDATA[
    .fil1 {fill:#FEFEFE}
    .fil0 {fill:#373435}
   ]]>
  </style>
 </defs>
 <g id="Camada_x0020_1">
  <metadata id="CorelCorpID_0Corel-Layer"/>
  <g id="_1870241770704">
   <path class="fil0" d="M1732.49 0l10364.51 0c955,0 1732.49,777.49 1732.49,1732.49l0 10347.68c0,964.25 -785.07,1749.32 -1749.32,1749.32l-10347.68 0c-955,0 -1732.49,-777.49 -1732.49,-1732.49l0 -10364.51c0,-955 777.49,-1732.49 1732.49,-1732.49z"/>
   <path class="fil1" d="M1732.49 549.96l10364.51 0c651.47,0 1182.53,531.06 1182.53,1182.53l0 10347.68c0,660.72 -538.64,1199.36 -1199.36,1199.36l-10347.68 0c-651.47,0 -1182.53,-531.06 -1182.53,-1182.53l0 -10364.51c0,-651.47 531.06,-1182.53 1182.53,-1182.53z"/>
   <path class="fil0" d="M1732.49 1099.92l10364.51 0c347.92,0 632.57,284.65 632.57,632.57l0 10347.68c0,357.17 -292.23,649.4 -649.4,649.4l-10347.68 0c-347.92,0 -632.57,-284.65 -632.57,-632.57l0 -10364.51c0,-347.92 284.65,-632.57 632.57,-632.57z"/>
   <path class="fil1" d="M6914.74 1038.52c3244.91,0 5876.22,2631.31 5876.22,5876.22 0,3244.91 -2631.31,5876.22 -5876.22,5876.22 -3244.91,0 -5876.22,-2631.31 -5876.22,-5876.22 0,-3244.91 2631.31,-5876.22 5876.22,-5876.22z"/>
   <path class="fil0" d="M6914.74 1538.48c2968.97,0 5376.26,2407.29 5376.26,5376.26 0,2968.97 -2407.29,5376.26 -5376.26,5376.26 -2968.97,0 -5376.26,-2407.29 -5376.26,-5376.26 0,-2968.97 2407.29,-5376.26 5376.26,-5376.26z"/>
   <path class="fil1" d="M6914.74 1788.46c2830.99,0 5126.28,2295.28 5126.28,5126.28 0,2830.99 -2295.28,5126.28 -5126.28,5126.28 -2830.99,0 -5126.28,-2295.28 -5126.28,-5126.28 0,-2830.99 2295.28,-5126.28 5126.28,-5126.28z"/>
   <path class="fil0" d="M6914.74 2281.47c2558.88,0 4633.27,2074.39 4633.27,4633.27 0,2558.88 -2074.39,4633.27 -4633.27,4633.27l0 -9266.55z"/>
   <path class="fil1" d="M7176.67 3587.73l2560.62 0c26.85,0 10.75,17.86 3.35,30.93 -71.71,126.62 -192.11,447.96 -248.85,588.39 -13.34,33.01 -23.65,60.58 -35,95.02 -11.55,34.88 -22.26,58.06 -33.37,90.98 -123.42,366.08 -238.38,708.91 -333.07,1091.37 -34.4,138.93 -74.51,271.51 -104.4,415.63l-93.26 421.11c-29.09,147.12 -58.1,285.69 -84.82,435.25l-109 665.35c-17.87,121.71 -42.32,354.74 -60.74,453.68 -3.64,19.78 -2.52,36.36 -5.4,56.82 -19.62,141.25 -26.89,280.89 -45.27,412.55 -11.19,80.19 -11.31,157.07 -21.82,238.18l-43.48 600.94c-0.71,27.93 -5.19,28.17 -6.03,56.15l-10.27 187.56c-4.51,40.2 2.84,88.14 -1.68,128.38 -10.15,90.46 -14.5,319.81 -15.9,430.61 -0.36,30.49 -5.2,33.33 -6.03,61.78l0.35 452.59c0.4,25.18 6.68,50.71 -17.14,50.71l-463.49 0c-136.69,0 -226.87,-97.25 -226.23,-231.63 0.08,-24.53 -0.4,-49.43 -0.12,-73.83 0.4,-32.09 6.03,-39.12 6.07,-73.08l5.48 -299.75c5.19,-95.78 -2,-209.85 9.75,-295.49l18.7 -360.04c-0.04,-32.01 0.64,-51.31 3.92,-75.24l29.84 -428.01c0.88,-65.61 44.68,-495.94 52.43,-558.04l146.56 -1074.39c8.87,-38.52 12.75,-91.18 20.9,-131.74 51.99,-259.36 91.22,-505.01 149.88,-771.44 9.71,-44.11 18.02,-80.55 28.09,-124.54 79.55,-348.82 153.12,-629.72 249.69,-971.27 22.94,-80.99 48.31,-154.8 71.52,-233.75 27.13,-92.21 136.93,-425.93 172.57,-511.72 25.18,-60.54 -0.92,-43.43 -162.5,-43.43 -147.28,0 -816.84,8.39 -907.73,-8 -77.08,-13.82 -154.88,-45.35 -207.33,-97.89 -78.04,-78.23 -113.44,-196.58 -162.31,-295.52 -17.06,-34.52 -31.01,-67.28 -48.23,-104.4l-83.87 -177.45c-8.07,-17.71 -13.62,-23.3 7.63,-23.3z"/>
   <path class="fil0" d="M4751.7 6012.55l0 225.01 -1353.43 0c0,-69.27 -7.29,-211.62 11.3,-267.43 13.66,-40.98 40.48,-75.56 80.41,-94.24 14.76,-6.91 53.03,-17.83 72.85,-17.83l1010.85 0c42,0 100.04,21.62 123.35,41.23 19.76,16.62 41.31,52.05 47.13,77.13 3.09,13.27 7.53,23.88 7.53,36.13zm-1706.05 604.51l3616.96 0c8.29,-35.57 3.37,-307.41 3.37,-366.07 0,-7.85 -5.58,-13.43 -13.43,-13.43l-1541.51 0 0 -198.15c0,-29.75 10.54,-65.22 21.77,-85.7 6.74,-12.3 13.46,-22.55 21.87,-31.86 49.52,-54.92 121.28,-63.79 208.24,-63.79l1299.69 0c0.88,-10.52 3.37,-11.95 3.37,-23.51 0,-57.69 4.89,-320.58 -3.37,-356l-1380.29 0c-81.68,0 -143.08,6.53 -204.46,27.26 -43.4,14.65 -123.75,55.93 -134.72,97l-6.72 0c-10.14,-43.47 -58.81,-75.97 -99.28,-92.13 -42.73,-17.1 -111.57,-32.13 -159.32,-32.13l-1195.57 0c-82.54,0 -197.73,44.28 -252.69,89.88 -44.51,36.94 -49.66,38.48 -87.02,84.25 -25.41,31.1 -19.21,27.89 -33.72,50.26 -43.51,67.03 -66.53,160.72 -66.53,249.15 0,73.16 -4.99,643.46 3.37,664.97zm3133.37 -2213.2l-2646.4 0c-25.31,0 -57.91,-9.33 -76.18,-17.85 -21.37,-9.95 -41.07,-23.53 -57.45,-39.94 -6.75,-6.72 -15.75,-17.97 -21.4,-25.64 -39.48,-53.61 -36.42,-106.37 -36.42,-171.8 0,-98.5 92.61,-184.73 181.36,-184.73l2669.92 0c37.21,0 87.36,24.98 116.71,54.59 22.03,22.22 31.79,31.69 43.61,60.49 21.25,51.71 14.32,94.79 14.32,150.25 0,41.14 -32.7,91.23 -61.26,120.1 -26.23,26.47 -75.58,54.53 -126.81,54.53zm-2716.93 379.5l2777.37 0c133.25,0 242.07,-56.17 329.98,-143.55 45.06,-44.83 69.34,-87.36 95.43,-143.01 27.89,-59.47 38.06,-133.7 38.06,-200.38l0 -231.75c0,-108.51 -27.16,-198.29 -80.6,-278.75 -17.75,-26.76 -31.81,-43.57 -54.58,-66.3 -22.77,-22.77 -36.56,-36.06 -62.96,-54.6 -50.28,-35.36 -67.3,-42.38 -119.43,-61.95 -43.59,-16.35 -107.76,-25.35 -155.97,-25.35l-2747.15 0c-33.17,0 -75.71,2.89 -101.16,9.66 -63.2,16.86 -102.53,27.45 -159.46,65.54l-48.12 35.85c-0.55,0.45 -1.28,1.12 -1.81,1.57l-5.48 4.58c-50.17,42.69 -83.96,96.9 -114.38,154.31l-24.02 63.29c-2.47,8.93 -3.16,9.17 -5.7,21.18 -2.83,13.41 -4.44,12.94 -6.2,24.03 -1.71,10.97 -1.11,15.07 -3.15,23.71 -9.24,39.39 -4.06,307.13 -4.06,368.7 0,26.02 14.05,88.74 22.57,115.12 9.19,28.53 27.83,68 43.9,93.79 7.46,11.96 14.46,22.31 22.79,34.3 44.33,63.75 112.67,117.85 183.11,149.38 9.07,4.08 8.62,3.96 18.83,8.04 51.11,20.52 103.79,32.6 162.19,32.6zm23.5 4490.19c30.04,0 74.4,19.73 101.56,29.39l198.2 67.11c73.06,24.62 233.17,81.78 298.76,100.89l148.19 49.97c113.57,34.55 233.9,78.51 346.35,117.09l2072 698.68c11.65,4.46 -1.26,1.28 11.96,4.82 0.88,-10.49 3.37,-11.94 3.37,-23.5l0 -1329.92c0,-79.84 -20.65,-132.07 -73.04,-178.86 -29.94,-26.71 -101.44,-50.95 -141.3,-70.27 -16.57,-8.02 -141.46,-66.56 -151.72,-66.56 -18.02,0 -10.09,47.37 -10.09,60.45l0 923.57c0.02,25.73 1.76,45.13 -8.31,62.2 -26.23,44.44 -78.15,26.99 -117.7,13.44l-546.49 -185.65c-33.78,-11.04 -63.31,-22.03 -97.44,-33.55 -34.76,-11.7 -65.88,-21.86 -100.75,-33.57 -17.12,-5.77 -32.43,-12.11 -46.92,-16.88l-674.73 -228.68c-0.78,-0.31 -1.63,-0.67 -2.42,-0.95l-118.01 -39.84c-16.76,-5.65 -33.59,-11.25 -50.4,-16.76l-694.29 -235.99c-115.61,-38.94 -229.61,-80.38 -346.38,-117.06l-248.06 -84.42c-58.02,-19.44 -117.01,-42.64 -175.67,-60.02 -8.53,-2.54 -19.99,-6.69 -19.99,7.15l0 1390.36c0,22.07 39.15,-4.06 48.95,-8.15 18.92,-7.83 38.96,-17.09 55.79,-24.81l163.33 -71.76c20.11,-9.49 31.01,-17.88 46.8,-33.81 17.31,-17.45 21.58,-20.91 34.64,-42.61 23.76,-39.46 30.03,-79.5 30.01,-127.84l0 -396.31c-0.12,-27.85 0.83,-50.69 11.3,-69.27 9.59,-17.02 27.51,-28.08 52.51,-28.08zm-345.9 -1057.91l3516.21 0c7.74,0 10.09,-2.33 10.09,-10.07l0 -812.73c0,-27.77 -2.73,-55.15 -8.09,-79.24 -26.14,-117.24 -97.83,-132.32 -179.33,-169.95l-185.37 -79.93c-10.59,45.47 0.41,677.01 -3.06,759.53 -0.88,21.36 1.35,12.89 -74.18,12.89l-1141.85 0c-42.57,0 -60.02,4.15 -85.96,-18.17 -0.52,-0.45 -1.28,-1.09 -1.78,-1.54 -3.44,-3.06 -3.63,-2.94 -6.81,-6.62 -2.54,-2.95 -7.6,-10.61 -9.67,-13.87 -45.39,-71.45 33.67,-247.39 -66.18,-360.31 -7.67,-8.67 -16.02,-14.01 -25.38,-21.63 -22.29,-18.12 -25.78,-16 -47.67,-26.24l-150.46 -64.48c-22.72,-9.88 -86.46,-40.91 -103.13,-41.29l0 547.42c0,14.58 -9.14,6.69 -57.09,6.72l-987.35 0c-29.75,0 -45.28,3.75 -66.19,-7.72 -33.8,-18.52 -44.94,-45.27 -44.68,-96.36l0.03 -282.12c0.02,-50.85 2.09,-21.65 -6.22,-64.31 -23.6,-120.91 -112.27,-135.01 -205.94,-180.29l-146.85 -68.46c-6.72,-3.15 -20.49,-11.89 -20.49,4.09l0 950.41c0,51 19.63,83.71 56.33,108.23 8.27,5.53 8.29,5.94 17.5,9.38 7.15,2.68 15.89,6.65 23.58,6.65z"/>
  </g>
 </g>
</svg>
